<svg xmlns="http://www.w3.org/2000/svg" xmlns:xlink="http://www.w3.org/1999/xlink" xmlns:serif="http://www.serif.com/" viewBox="0 0 32 40" version="1.1" xml:space="preserve" style="" x="0px" y="0px" fill-rule="evenodd" clip-rule="evenodd" stroke-linejoin="round" stroke-miterlimit="2"><path d="M22.625,4.741c0,-0.859 -0.341,-1.684 -0.949,-2.292c-0.608,-0.608 -1.433,-0.949 -2.292,-0.949c-2.018,0 -4.75,0 -6.768,0c-0.859,0 -1.684,0.341 -2.292,0.949c-0.608,0.608 -0.949,1.433 -0.949,2.292c0,5.358 0,17.16 0,22.518c-0,0.859 0.341,1.684 0.949,2.292c0.608,0.608 1.433,0.949 2.292,0.949c2.018,-0 4.75,-0 6.768,-0c0.859,-0 1.684,-0.341 2.292,-0.949c0.608,-0.608 0.949,-1.433 0.949,-2.292l-0,-22.518Zm-6.625,16.009c-1.966,-0 -3.562,1.596 -3.562,3.562c-0,1.967 1.596,3.563 3.562,3.563c1.966,-0 3.562,-1.596 3.562,-3.563c0,-1.966 -1.596,-3.562 -3.562,-3.562Zm0,-8.312c-1.966,-0 -3.562,1.596 -3.562,3.562c-0,1.966 1.596,3.562 3.562,3.562c1.966,0 3.562,-1.596 3.562,-3.562c0,-1.966 -1.596,-3.562 -3.562,-3.562Zm0,-8.313c-1.966,0 -3.562,1.596 -3.562,3.563c-0,1.966 1.596,3.562 3.562,3.562c1.966,0 3.562,-1.596 3.562,-3.562c0,-1.967 -1.596,-3.563 -3.562,-3.563Z"/><text x="0" y="47" fill="#000000" font-size="5px" font-weight="bold" font-family="'Helvetica Neue', Helvetica, Arial-Unicode, Arial, Sans-serif">Created by Firza Alamsyah</text><text x="0" y="52" fill="#000000" font-size="5px" font-weight="bold" font-family="'Helvetica Neue', Helvetica, Arial-Unicode, Arial, Sans-serif">from the Noun Project</text></svg>